<svg width="54" height="58" fill="none" xmlns="http://www.w3.org/2000/svg"><path d="M48.244 43.973c0 1.461.132 2.524.53 3.055.399.664 1.062.93 2.257.93h1.194c.531 0 1.062-.133 1.593-.266v8.1c-.398.134-.93.266-1.593.532l-1.99.398c-.664.133-1.328.266-2.124.266-.664.133-1.327.133-1.725.133-2.39 0-4.38-.531-5.973-1.461s-2.654-2.656-3.053-5.046c-2.389 2.257-5.176 3.984-8.627 4.913-3.45 1.063-6.636 1.594-9.82 1.594-2.39 0-4.646-.266-6.902-.93-2.257-.664-4.115-1.593-5.84-2.921-1.725-1.328-3.053-2.922-3.982-4.914C1.127 46.364.73 44.106.73 41.45c0-3.32.664-5.976 1.858-8.1a13.071 13.071 0 014.778-4.914c1.991-1.196 4.115-1.992 6.636-2.524 2.39-.53 4.911-.93 7.433-1.195 2.123-.398 4.114-.664 6.105-.93 1.99-.132 3.584-.398 5.044-.93 1.46-.398 2.654-1.061 3.45-1.858.797-.797 1.327-2.125 1.327-3.852 0-1.46-.398-2.788-1.061-3.718a7.314 7.314 0 00-2.655-2.258c-1.061-.53-2.256-.796-3.583-1.062-1.328-.133-2.522-.266-3.716-.266-3.319 0-5.973.664-8.096 2.125-2.124 1.328-3.318 3.453-3.584 6.375H2.853c.265-3.453 1.062-6.242 2.522-8.5 1.46-2.257 3.318-4.117 5.574-5.445 2.256-1.328 4.778-2.39 7.565-2.921A46.332 46.332 0 0127.141.68c2.654 0 5.176.266 7.698.797 2.521.531 4.778 1.46 6.901 2.656 1.991 1.195 3.716 2.789 4.91 4.78 1.195 1.993 1.859 4.383 1.859 7.172v27.888h-.265zM36.43 29.1c-1.725 1.195-3.981 1.859-6.636 2.124-2.654.266-5.176.664-7.83 1.063-1.195.265-2.39.531-3.584.93-1.194.398-2.256.93-3.052 1.593-.93.664-1.593 1.46-2.124 2.523-.53 1.063-.796 2.39-.796 3.852 0 1.328.398 2.39 1.194 3.32.797.93 1.726 1.593 2.787 2.124 1.062.532 2.257.93 3.451 1.063 1.327.266 2.39.266 3.451.266a16.87 16.87 0 004.247-.532c1.46-.398 2.92-.93 4.247-1.726 1.327-.797 2.522-1.86 3.318-3.187.93-1.328 1.327-2.79 1.327-4.648V29.1z" fill="#fff"/></svg>