<svg width="84" height="13" fill="none" xmlns="http://www.w3.org/2000/svg"><path d="M13.322 11.97h-3.317V3.868L7.88 12.102H5.625L3.5 3.87v8.233H.847V.682h4.645L7.085 6.79 8.677.681h4.646V11.97zm9.556 0h-8.627V.547h8.627v2.656h-5.176V4.93h4.115v2.523h-4.115v1.86h5.176v2.655zM23.675.548h4.247c1.593 0 2.92.266 4.247 1.461 1.195 1.196 1.725 2.656 1.725 4.383 0 1.46-.53 3.054-1.592 4.117-1.195 1.195-2.522 1.593-4.115 1.593h-4.512V.548zm3.982 8.898c.53 0 .796 0 1.194-.265.265-.133.53-.399.796-.797.399-.664.531-1.461.531-2.258 0-.797-.265-1.726-.663-2.39-.531-.664-1.062-.664-1.858-.664h-.399v6.241h.399v.133zm10.352 2.524h-3.584V.547h3.584V11.97zm7.167-2.258h-3.053l-.664 2.258h-2.92L42.124.547h3.716l3.584 11.421H45.84l-.663-2.257zm-.531-2.39l-.93-3.32-.928 3.32h1.858zm14.068.531c-.265 2.656-2.123 4.382-4.778 4.382-3.45 0-5.309-2.523-5.309-5.71 0-3.32 1.593-6.11 5.177-6.11 2.92 0 4.645 1.727 4.778 4.649l-3.319.133c0-.93-.398-2.125-1.46-2.125-1.592 0-1.592 2.39-1.592 3.453 0 1.195.133 3.054 1.593 3.054 1.061 0 1.46-.93 1.592-1.86l3.318.134zm11.414-1.461c0 3.32-1.99 5.843-5.441 5.843-3.451 0-5.442-2.656-5.442-5.843 0-3.453 1.99-5.976 5.442-5.976 3.45 0 5.441 2.523 5.441 5.976zm-7.167 0c0 1.062.133 3.187 1.726 3.187 1.592 0 1.725-2.125 1.725-3.187 0-1.063-.133-3.32-1.725-3.32-1.593-.133-1.726 2.125-1.726 3.32zm20.174 5.578h-3.318V3.868l-2.124 8.233h-2.256L73.312 3.87v8.233h-2.654V.682h4.645l1.593 6.108L78.489.681h4.645V11.97z" fill="#fff"/></svg>