<svg width="102" height="30" fill="none" xmlns="http://www.w3.org/2000/svg"><g opacity=".5" fill="#fff"><path opacity=".5" d="M85.696 29.469l-3.052-11.687 5.972 10.492-.133.132c-.796.532-1.725.797-2.654 1.063h-.133zm-2.123-9.43l2.389 9.031c.796-.265 1.592-.53 2.256-.93l-4.645-8.1z"/><path opacity=".5" d="M80.387 29.469h-.132c-.93-.266-1.726-.664-2.655-1.063l-.132-.133 5.441-9.428h.266v.265l-2.788 10.36zm-2.389-1.328c.664.398 1.46.664 2.257.93l2.389-9.031-4.646 8.1z"/><path opacity=".5" d="M83.042 29.734h-.133V17.65l3.053 11.687h-.133c-.929.398-1.858.398-2.787.398zm.133-9.561v9.296c.796 0 1.592-.133 2.389-.266l-2.39-9.03z"/><path opacity=".5" d="M83.042 29.734c-.93 0-1.858-.132-2.787-.398h-.133l3.053-11.687v12.085h-.133zm-2.522-.53c.797.132 1.593.265 2.39.265v-9.296l-2.39 9.03z"/><path opacity=".5" d="M88.35 28.406l-5.44-9.429.132-.265 7.83 7.835-.132.133c-.664.664-1.46 1.195-2.256 1.726h-.133zm-4.512-8.499l4.646 8.101c.663-.398 1.327-.93 1.858-1.46l-6.504-6.641z"/><path opacity=".5" d="M75.477 26.68c-.797-.797-1.327-1.594-1.858-2.39l-.133-.133 9.29-5.445.133-.133.133.398h-.133l-7.432 7.703zm-1.46-2.39c.398.663.929 1.328 1.46 1.992l6.503-6.508-7.963 4.515z"/><path opacity=".5" d="M83.042 19.11l-9.556-5.445.133-.132c.53-.797 1.061-1.594 1.725-2.258l.133-.133 7.698 7.703-.133.265zm-9.025-5.577l8.096 4.648-6.636-6.508a10.024 10.024 0 00-1.46 1.86z"/><path opacity=".5" d="M83.838 19.907l-.796-.797.133-.133-.133.133-7.698-7.702.133-.133c.663-.664 1.46-1.195 2.256-1.727l.133-.132 5.972 10.491zm-8.096-8.5l6.504 6.508-4.646-8.1c-.663.53-1.327 1.062-1.858 1.593z"/><path opacity=".5" d="M83.573 20.04L77.6 9.548l.133-.132c.796-.532 1.725-.797 2.654-1.063h.133l3.053 11.687zM77.999 9.814l4.645 8.101-2.39-9.03c-.796.132-1.592.53-2.255.93z"/><path opacity=".5" d="M83.706 19.11h-.664l-10.485-2.789v-.132c.265-.93.663-1.727 1.062-2.656l.132-.133 9.954 5.71zm-10.75-3.054l9.024 2.39-8.096-4.648c-.398.797-.663 1.46-.929 2.258z"/><path opacity=".5" d="M83.042 19.11H72.159v-.133c0-.93.132-1.859.398-2.788v-.133l10.75 2.921-.265.133zm-10.485-.265h9.29l-9.025-2.39c-.132.663-.265 1.593-.265 2.39z"/><path opacity=".5" d="M77.733 28.406l-.133-.132c-.796-.532-1.592-1.063-2.256-1.727l-.133-.133 7.698-7.702h.531l-.265.265-5.442 9.43zm-1.99-1.859a9.999 9.999 0 001.857 1.461l4.646-8.101-6.504 6.64z"/><path opacity=".5" d="M73.751 24.555l-.132-.133c-.531-.797-.797-1.726-1.062-2.656v-.132l10.485-2.79h.663l-.53.266-9.424 5.445zm-.796-2.656c.266.797.53 1.594.93 2.258l8.095-4.648-9.025 2.39z"/><path opacity=".5" d="M72.69 21.899v-.133a10.095 10.095 0 01-.398-2.789v-.132h12.077l-11.68 3.054zm-.133-2.789c0 .797.133 1.594.265 2.39l9.025-2.39h-9.29z"/><path opacity=".5" d="M82.644 20.04l3.052-11.687h.133c.929.266 1.725.664 2.654 1.063l.133.132-5.972 10.492zm3.318-11.156l-2.39 9.031 4.646-8.1c-.796-.4-1.46-.798-2.256-.93z"/><path opacity=".5" d="M82.246 19.907l5.972-10.491.133.132c.796.532 1.593 1.063 2.256 1.727l.133.133-8.494 8.499zm6.238-9.96l-4.646 8.1 6.504-6.507a6.987 6.987 0 00-1.858-1.593z"/><path opacity=".5" d="M90.607 26.68l-7.565-7.57.265-.265c.664.664 1.328 1.195 2.124 1.593.796.399 1.593.797 2.522 1.063l4.645 2.656-.133.133c-.53.93-1.062 1.726-1.858 2.39zm-5.574-5.976l5.574 5.578a10.028 10.028 0 001.46-1.86L87.82 21.9c-.93-.265-1.726-.664-2.655-1.062 0-.133-.132-.133-.132-.133z"/><path opacity=".5" d="M92.332 24.555l-5.707-3.32 1.195.266c.929.265 1.725.398 2.654.398.93 0 1.858-.133 2.655-.398l.265-.133-.133.266c-.265.93-.663 1.726-1.061 2.656l.132.265zm-3.583-2.523l3.45 1.992c.399-.664.664-1.328.93-2.125-.797.133-1.726.266-2.522.266-.664.133-1.195 0-1.858-.133zm-5.839-1.859V8.088h.132c.929 0 1.858.132 2.787.398h.133l-3.053 11.687zm.265-11.687v9.296l2.389-9.03c-.797-.133-1.593-.266-2.39-.266z"/><path opacity=".5" d="M83.175 20.173L80.122 8.486h.133a10.097 10.097 0 012.787-.398h.133v12.085zM80.52 8.752l2.39 9.03V8.486c-.797 0-1.593.133-2.39.266zm10.087 13.545h-.133V10.212L93.527 21.9h-.133c-.929.266-1.858.398-2.787.398zm.133-9.694v9.296c.796 0 1.592-.133 2.389-.265l-2.39-9.031z"/><path opacity=".5" d="M93.261 21.899L90.21 10.212l5.972 10.492-.132.133c-.797.53-1.726.796-2.655 1.062h-.133zm-2.256-9.296l2.39 9.03c.796-.265 1.592-.53 2.255-.93l-4.645-8.1z"/><path opacity=".5" d="M90.74 22.297h-.133c-.93 0-1.858-.132-2.787-.398h-.133l2.92-10.757.265.266v10.889h-.132zm-2.655-.664c.797.133 1.593.266 2.39.266v-9.296l-2.39 9.03z"/><path opacity=".5" d="M87.953 21.899h-.133c-.93-.266-1.725-.664-2.655-1.062l-.132-.133 5.972-10.492L87.953 21.9zm-2.522-1.328c.663.398 1.46.664 2.256.93l2.39-9.03-4.646 8.1z"/><path opacity=".5" d="M85.298 20.837l-.133-.133c-.796-.531-1.592-1.063-2.256-1.727l-.133-.132 8.495-8.5-5.973 10.492zm-1.99-1.86a7.733 7.733 0 001.99 1.461l4.645-8.1-6.636 6.64z"/><path opacity=".5" d="M100.959 14.33l-10.485-2.79h-.132v-.398h10.883v.133c0 .93-.133 1.86-.398 2.789l.132.265zm-9.157-2.79l9.025 2.39c.132-.796.265-1.593.265-2.39h-9.29z"/><path opacity=".5" d="M90.607 11.673l-.265-.132L93.129.916h.132c.93.266 1.726.664 2.655 1.063l.133.133-5.442 9.561zm2.92-10.358l-2.39 9.03 4.646-8.1c-.796-.399-1.593-.665-2.256-.93z"/><path opacity=".5" d="M90.474 11.939V.518h.133c.929 0 1.858.133 2.787.398h.133L90.74 11.408l-.266.53zM90.74.916v9.296l2.389-9.03c-.797-.133-1.593-.266-2.39-.266z"/><path opacity=".5" d="M90.74 12.603L87.687.916h.133a10.119 10.119 0 012.787-.398h.133v12.085zM88.085 1.182l2.39 9.03V.917c-.797 0-1.726.133-2.39.266z"/><path opacity=".5" d="M90.076 12.072l5.84-10.093.133.133c.796.53 1.592 1.062 2.256 1.726l.133.133-7.698 7.702-.664.399zm5.973-9.695l-4.646 8.101 6.504-6.507c-.531-.664-1.195-1.195-1.858-1.594z"/><path opacity=".5" d="M90.607 11.54h-.398l7.963-7.968.133.133c.663.664 1.194 1.461 1.725 2.258l.133.133-9.556 5.444zm7.565-7.436l-6.636 6.64 8.096-4.648a7.737 7.737 0 00-1.46-1.992z"/><path opacity=".5" d="M99.897 16.985l-9.423-5.444h-.132v-.399l.265.133 10.485 2.789v.133c-.265.93-.664 1.726-1.062 2.655l-.133.133zM91.67 11.94l8.096 4.648c.398-.664.663-1.46.929-2.258l-9.025-2.39z"/><path opacity=".5" d="M90.076 11.54l.398-.265 10.485-2.789v.133c.266.93.398 1.86.398 2.789v.133h-11.28zm10.751-2.655l-9.025 2.39h9.29c0-.797-.133-1.594-.265-2.39z"/><path opacity=".5" d="M89.413 11.939l10.485-5.976.132.133c.531.796.797 1.726 1.062 2.656v.132l-11.68 3.055zm10.352-5.71l-8.096 4.647 9.025-2.39a16.27 16.27 0 00-.93-2.258z"/><path opacity=".5" d="M91.403 12.337L82.91 3.838l.133-.133c.663-.664 1.46-1.195 2.256-1.726l.133-.133 5.972 10.491zm-8.096-8.499l6.504 6.507-4.646-8.1c-.663.53-1.327 1.062-1.858 1.593z"/><path opacity=".5" d="M91.005 12.603L85.033 2.112l.132-.133c.797-.531 1.726-.797 2.655-1.063h.133v.133l3.052 11.554zM85.431 2.244l4.645 8.101-2.389-9.03a16.04 16.04 0 00-2.256.93z"/><path opacity=".5" d="M90.474 11.54c-.663-.663-1.327-1.195-2.123-1.593-.796-.398-1.593-.797-2.522-1.063l-4.645-2.656.133-.132c.53-.797 1.061-1.594 1.725-2.258l.133-.133 7.698 7.703-.399.133zM85.83 8.486c.93.266 1.726.664 2.655 1.062 0 0 .132 0 .132.133l-5.574-5.577a10.029 10.029 0 00-1.46 1.859l4.247 2.523z"/><path opacity=".5" d="M86.89 9.15l-1.194-.266c-.929-.265-1.858-.398-2.654-.398-.93 0-1.858.133-2.654.398l-.266.133.133-.265c.265-.93.663-1.727 1.062-2.656l.132-.133 5.442 3.187zm-5.44-2.922c-.399.664-.664 1.328-.93 2.125.797-.133 1.726-.265 2.522-.265.664 0 1.194 0 1.725.132L81.45 6.228zm16.722 13.015l-7.698-7.702.133-.266 9.556 5.445-.133.133c-.53.796-1.062 1.593-1.858 2.39zm-6.636-7.038l6.636 6.64a7.734 7.734 0 001.46-1.992l-8.096-4.649z"/><path opacity=".5" d="M95.916 20.837l-5.972-10.492 8.494 8.5-.133.133c-.664.663-1.46 1.195-2.256 1.726l-.133.133zm-4.513-8.5l4.646 8.101a10.02 10.02 0 001.858-1.46l-6.504-6.64z"/></g><path d="M9.116 18.978h-1.46v-4.914l-2.654 3.187c-.133.133-.266.133-.398 0l-2.655-3.187v4.914H.49v-6.773c0-.399.398-.797.796-.797a.73.73 0 01.664.399l2.787 3.452 2.92-3.585c.133-.133.398-.266.531-.266.398 0 .796.399.796.797v6.773h.133zm37.826-.001h1.725l.93-1.992h3.317l1.062 1.992H55.7l-3.716-7.17a.73.73 0 00-.663-.4.73.73 0 00-.664.4l-3.716 7.17zm4.247-5.444l1.062 2.124h-2.124l1.062-2.124zm-29.995 5.444h-1.062l-5.043-5.046v5.046h-1.46v-6.773c0-.398.398-.796.796-.796.265 0 .398.133.664.265l4.645 4.648v-4.515c0-.265.265-.531.53-.531h.532c.265 0 .53.265.53.531v7.171h-.132zm6.237-7.437c-.53-.132-1.061-.132-1.858-.132H23.45c-.398 0-.796.398-.796.796v6.773h2.521c.797 0 1.46-.132 2.124-.265 1.99-.531 3.052-1.86 3.052-3.586 0-1.86-1.061-3.054-2.92-3.585zm-.398 5.844c-.53.133-1.061.133-1.725.133h-.93v-4.649h1.195c.664 0 1.195 0 1.593.133 1.195.266 1.726.93 1.726 2.125-.133 1.063-.664 1.86-1.859 2.258zm33.977-1.461c1.195-.398 1.726-1.062 1.726-2.258 0-1.46-1.195-2.39-3.053-2.39H57.16c-.398 0-.796.398-.796.797v6.773h1.46v-2.79h1.327l1.858 2.79h1.858l-1.858-2.922zm-3.052-1.195v-1.86h1.858c.53 0 1.327.133 1.327.93 0 .399-.133.93-1.593.93h-1.592zm-47.382 4.249h1.46V11.94c0-.266-.265-.531-.531-.531h-.53c-.266 0-.532.265-.532.53v7.04h.133zm35.437 0H44.42V15.79h-3.982v3.187h-1.46V11.94c0-.266.266-.531.531-.531h.531c.266 0 .531.265.531.53v2.524h3.982V11.94c0-.266.265-.531.53-.531h.531c.266 0 .531.265.531.53v7.04h-.132zm-11.282-4.515c-1.062-.133-1.725-.265-1.725-.93 0-.53.53-.796 1.46-.796 1.062 0 1.858.398 2.256.53.133 0 .133 0 .133-.132l.398-.93v-.132c0-.133 0-.133-.133-.133a6.62 6.62 0 00-2.787-.664c-1.858 0-2.92.797-2.92 2.258a2.2 2.2 0 00.664 1.593c.53.399 1.46.531 2.256.664 1.062.133 1.726.266 1.726.797 0 .93-1.195.93-1.726.93-.796 0-1.593-.266-2.256-.664l-.133-.133-.133.133-.53.93-.133.398.133.132c.53.399 1.46.797 2.92.797 1.99 0 3.318-.93 3.318-2.39.132-1.86-1.46-2.125-2.788-2.258zm34.508 1.062a.286.286 0 01-.266.266h-3.318v1.727h3.982v1.46h-5.574v-6.773c0-.398.398-.796.796-.796h4.38c.133 0 .265.133.265.265v.797a.286.286 0 01-.265.266h-3.584v1.593h3.318c.133 0 .266.133.266.266v.93zM83.042 30c-6.105 0-11.149-4.914-11.149-11.155 0-6.11 4.911-11.156 11.149-11.156 2.92 0 5.707 1.195 7.83 3.188l-.663.663c-1.859-1.859-4.513-2.92-7.167-2.92-5.574 0-10.087 4.515-10.087 10.093s4.513 10.093 10.087 10.093c4.645 0 8.76-3.188 9.821-7.703l.93.266C92.597 26.548 88.217 30 83.041 30z" fill="#fff"/><path d="M83.042 19.907a.908.908 0 01-.93-.93c0-.53.4-.93.93-.93s.929.4.929.93c0 .532-.398.93-.929.93zm0-1.062s0 .133 0 0c0 .133 0 .133 0 0 0 .133 0 .133 0 0 0 .133 0 0 0 0z" fill="#fff"/><path d="M90.607 22.43c-2.92 0-5.707-1.062-7.698-3.187l.664-.664a9.941 9.941 0 007.034 2.922c.929 0 1.858-.133 2.654-.399 4.38-1.195 7.433-5.179 7.433-9.827 0-5.578-4.513-10.093-10.087-10.093-4.645 0-8.76 3.187-9.821 7.702l-.93-.265c1.195-5.047 5.708-8.5 10.751-8.5 6.105 0 11.149 4.914 11.149 11.156 0 5.046-3.319 9.429-8.23 10.757a11.06 11.06 0 01-2.919.398z" fill="#fff"/><path d="M90.607 12.204c-.53 0-.796-.398-.796-.796 0-.531.398-.797.796-.797.53 0 .796.398.796.797 0 .398-.398.796-.796.796zm0-.93c-.133 0-.133 0 0 0-.133.134 0 .267 0 .267 0-.133.133-.133 0-.266.133 0 0 0 0 0z" fill="#fff"/><path d="M90.303 11.047L82.73 18.68l.659.655 7.575-7.633-.66-.655z" fill="#fff"/></svg>