<svg width="76" height="23" fill="none" xmlns="http://www.w3.org/2000/svg"><path d="M38.872 11.126c0 2.258-.796 3.32-2.522 3.32-1.725 0-2.521-1.062-2.521-3.32V4.884h-2.256v6.508c0 3.32 1.725 5.18 4.777 5.18 3.053 0 4.779-1.86 4.779-5.18V4.884h-2.257v6.242zm12.874-.664c0 2.789-1.725 3.984-3.583 3.984-2.257 0-3.451-1.992-3.451-3.984 0-2.656 1.725-3.984 3.45-3.984 2.124 0 3.584 1.727 3.584 3.984zm-3.052-5.976c-1.593 0-2.92.797-3.85 2.125V4.884h-2.256v16.468h2.257v-6.64c.929 1.328 2.256 1.992 3.716 1.992 1.593 0 3.052-.664 3.981-1.86.93-1.062 1.46-2.655 1.46-4.249 0-1.594-.53-3.054-1.46-4.117a4.663 4.663 0 00-3.848-1.992zm-28.668.531c-.664-.398-1.195-.53-1.858-.53a3.353 3.353 0 00-3.053 1.991V4.752h-2.256v11.42h2.256v-5.577c0-1.86.265-3.851 2.522-3.851.398 0 .663 0 .929.133l1.46-1.86zM9.275 4.752V6.61C8.346 5.283 7.02 4.486 5.426 4.486c-1.592 0-2.92.664-3.849 1.86C.648 7.407.117 8.868.117 10.461c0 1.594.531 3.187 1.46 4.25.93 1.195 2.39 1.86 3.982 1.86 1.46 0 2.787-.798 3.716-1.993v1.726c0 1.992-.398 3.985-3.185 3.985-1.99 0-3.318-1.196-3.318-3.055v-.133H.648v.133c0 3.055 2.257 5.18 5.442 5.18 4.91 0 5.574-3.586 5.574-6.773V4.884H9.275v-.132zm-3.45 9.694c-2.257 0-3.451-1.992-3.451-3.984 0-2.656 1.725-3.984 3.45-3.984 2.124 0 3.584 1.594 3.584 3.984-.133 2.789-1.858 3.984-3.583 3.984zM74.707 9.4c-1.062.398-2.124.664-2.92.664-.663 0-1.062-.133-1.327-.531-.265-.399-.265-.93-.133-1.727l.664-2.921c.265-1.461.133-2.524-.398-3.188-.531-.664-1.328-.93-2.39-.93-1.194 0-2.256.399-3.317 1.329-.399-.797-1.328-1.328-2.522-1.328-1.062 0-1.99.398-2.92 1.062-.398-.664-1.46-1.195-2.654-1.195-.531 0-1.195.133-1.726.265h-.133l-.398 2.125.531-.265c.797-.266 1.46-.266 1.726 0 .265.265.265.664.132 1.195l-1.46 6.242h2.522l1.062-4.383c.53-2.125 1.46-3.187 2.787-3.187.398 0 .664.133.796.398.266.266.266.797.133 1.594l-1.327 5.578h2.521l1.195-5.18c.266-1.328 1.46-2.39 2.654-2.39.399 0 .664.133.797.398.265.266.265.797.132 1.594l-.663 3.187c-.266 1.328-.133 2.39.53 3.055.664.796 1.726 1.195 3.053 1.195 1.062 0 2.257-.266 3.451-.797l.133-.133.53-2.39-1.061.664zM30.245 8.072c-.265-.797-.663-1.328-1.194-1.86-.531-.53-1.062-.93-1.858-1.195-.664-.265-1.593-.398-2.522-.398-.929 0-1.725.133-2.522.398-.663.266-1.327.664-1.858 1.196-.53.53-.929 1.195-1.194 1.859a7.523 7.523 0 00-.398 2.39c0 .93.132 1.727.398 2.523.265.797.663 1.328 1.194 1.86.531.53 1.062.93 1.858 1.195.664.265 1.593.398 2.522.398a7.74 7.74 0 002.522-.398c.663-.266 1.327-.664 1.858-1.195.53-.532.929-1.196 1.194-1.86a7.737 7.737 0 00.398-2.523c0-.797-.132-1.726-.398-2.39zm-3.849 6.241c-.398.266-.929.399-1.592.399a3.53 3.53 0 01-1.593-.399c-.398-.265-.796-.53-1.062-.93-.265-.398-.53-.796-.663-1.327-.133-.531-.133-1.063-.133-1.594 0-.531 0-1.062.133-1.46.133-.532.398-.93.663-1.329.266-.398.664-.664 1.062-.93.398-.265.93-.398 1.593-.398.53 0 1.062.133 1.592.399.399.265.797.53 1.062.93.266.398.531.796.664 1.327.133.532.133 1.063.133 1.461 0 .531 0 1.063-.133 1.594-.133.531-.398.93-.664 1.328-.265.398-.663.797-1.062.93z" fill="#fff"/></svg>