<svg width="81" height="28" fill="none" xmlns="http://www.w3.org/2000/svg"><path d="M20.346 27.211c-.133 0-.398-.133-.663-.531l-.664-1.86h-4.114l-.664 1.86c-.133.398-.398.531-.664.531-.265 0-.663-.265-.663-.664 0-.133 0-.265.132-.398l3.186-7.968c.265-.664.53-.664.796-.664s.531.132.796.664l3.186 7.968c.132.133.132.265.132.398-.132.399-.53.664-.796.664zm-1.858-3.718l-1.593-4.25-1.592 4.25h3.185zm9.556-4.914c.133-.133.133-.398.133-.398 0-.399-.266-.664-.664-.664-.265 0-.53.132-.664.53l-2.787 7.305-2.787-7.304c-.133-.399-.398-.531-.663-.531-.399 0-.664.265-.664.664 0 .132 0 .265.133.398l3.052 7.835c.266.664.664.797.93.797.265 0 .663-.133.928-.797l3.053-7.835zm6.503 4.117c.531 0 .664-.399.664-.531 0-.133-.133-.531-.664-.531h-3.981v-2.79h4.247c.53 0 .663-.398.663-.53 0-.133-.132-.532-.663-.532h-4.778c-.531 0-.797.266-.797.797v7.968c0 .531.266.797.797.797h4.91c.531 0 .664-.398.664-.531s-.133-.531-.663-.531h-4.38v-3.188h3.981v-.398zM55.65 27.21c-.133 0-.398-.133-.664-.531l-.663-1.86h-4.115l-.663 1.86c-.133.398-.398.531-.664.531-.265 0-.663-.265-.663-.664 0-.133 0-.265.132-.398l3.186-7.968c.265-.664.53-.664.796-.664.265 0 .53.132.796.664l3.186 7.968c.132.133.132.265.132.398-.132.399-.398.664-.796.664zm-1.725-3.718l-1.593-4.25-1.593 4.25h3.186zm-7.433 3.718c.266 0 .664-.133.664-.797v-8.1c0-.797-.531-.93-.797-.93-.265 0-.663.133-.929.797l-3.185 7.17-3.185-7.17c-.266-.664-.664-.797-.93-.797-.265 0-.796.133-.796.93v8.1c0 .664.399.664.664.664.266 0 .664-.132.664-.664v-6.109l2.787 6.242c.265.531.53.664.796.664s.531-.133.797-.664l2.787-6.374v6.241c0 .664.398.797.663.797zm18.183-.664c0-.133 0-.398-.265-.531l-4.115-3.984 3.85-3.32c.265-.266.265-.399.265-.531 0-.399-.266-.532-.664-.532-.133 0-.398.133-.53.266l-4.38 3.984V18.18c0-.664-.399-.797-.664-.797-.266 0-.664.133-.664.797v8.233c0 .664.398.797.664.797.265 0 .663-.133.663-.797v-4.25l4.646 4.782c.132.265.398.265.53.265.399 0 .664-.398.664-.664zm6.636-3.851c.531 0 .664-.399.664-.531 0-.133-.133-.531-.664-.531H67.33v-2.79h4.248c.53 0 .663-.398.663-.53 0-.133-.132-.532-.663-.532H66.8c-.531 0-.797.266-.797.797v7.968c0 .531.266.797.797.797h4.91c.531 0 .664-.398.664-.531s-.133-.531-.664-.531h-4.38v-3.188h3.982v-.398zm5.309.133h-1.46v3.585c0 .664-.398.797-.664.797-.265 0-.663-.133-.663-.797v-8.1c0-.532.265-.797.796-.797h2.256c1.858 0 3.319.664 3.319 2.656 0 1.328-.93 2.257-2.257 2.523l2.257 3.32c.132.133.132.398.132.398 0 .399-.265.664-.663.664-.133 0-.399-.132-.531-.398l-2.522-3.851zm-1.46-1.195h1.593c1.194 0 2.256-.399 2.256-1.594s-.93-1.461-2.124-1.461h-1.592v3.055h-.133zm-61.715-4.117c-.399-.133-.797 0-.93.398l-2.654 7.171-1.858-7.171c-.133-.266-.398-.531-.664-.531-.265 0-.53.133-.663.531l-1.858 7.171-2.655-7.171c-.132-.398-.53-.531-.929-.398-.398.132-.53.53-.398.93l3.053 8.1c.132.266.265.399.53.531.531.133 1.062 0 1.195-.53v-.134l1.593-6.241 1.592 6.241v.133c.133.531.797.797 1.195.531a1.03 1.03 0 00.53-.53l3.053-8.102c.399-.398.266-.797-.132-.93zm40.347-4.913h-.398c-.531 0-1.062-.398-1.195-.93L50.341 5.83l-1.858 5.844c-.133.53-.664 0-1.195 0-.53 0-1.061.53-1.194 0L44.236 5.83l-1.858 5.844c-.133.53-.664.93-1.195.93h-.398c-.663-.266-1.062-.93-.796-1.594l3.052-9.43c.133-.53.664 0 1.195 0 .53 0 1.062-.53 1.194 0l1.858 5.844 1.859-5.843c.132-.531.663 0 1.194 0 .531 0 1.062-.531 1.195 0l3.052 9.429c.266.664-.133 1.328-.796 1.593zM40.387.783h-.398c-.531 0-1.062.4-1.195.93l-1.858 5.844-1.858-5.843c-.133-.532-.664 0-1.194 0-.531 0-1.062-.532-1.195 0l-1.858 5.843-1.858-5.843c-.133-.532-.664-.93-1.195-.93h-.398c-.663.266-1.062.93-.796 1.594l3.053 9.428c.132.532.663 0 1.194 0 .53 0 1.062.532 1.194 0l1.859-5.843 1.858 5.843c.132.532.663 0 1.194 0 .531 0 1.062.532 1.195 0l3.052-9.428c.266-.664-.133-1.461-.796-1.594z" fill="#fff"/><path d="M50.341.65c.53 0 1.062.4 1.194.93a.847.847 0 010 .797l-1.194 3.586-1.194-3.586a.847.847 0 010-.797c.132-.53.663-.93 1.194-.93zm-7.432.93a.847.847 0 000 .797l1.194 3.586 1.194-3.586a.847.847 0 000-.797c-.132-.53-.663-.93-1.194-.93-.53 0-1.062.4-1.194.93zm-5.973 11.023c.531 0 1.062-.398 1.195-.93a.847.847 0 000-.796L36.936 7.29l-1.194 3.585a.847.847 0 000 .797c.132.532.663.93 1.194.93zm-6.238 0c.531 0 1.062-.398 1.195-.93a.847.847 0 000-.796L30.698 7.29l-1.194 3.585a.847.847 0 000 .797c.265.532.663.93 1.194.93zM33.884.65c.53 0 1.061.4 1.194.93a.847.847 0 010 .797l-1.194 3.586-1.195-3.586a.847.847 0 010-.797c.133-.53.664-.93 1.195-.93zm13.404 11.953c.531 0 1.062-.398 1.195-.93a.847.847 0 000-.796L47.289 7.29l-1.195 3.585a.847.847 0 000 .797c.133.532.53.93 1.194.93z" fill="#fff"/></svg>