<svg width="52" height="58" fill="none" xmlns="http://www.w3.org/2000/svg"><path d="M12.339 32.287c0 2.125.265 4.117.929 5.976.53 1.992 1.46 3.586 2.654 5.046 1.195 1.461 2.654 2.657 4.38 3.453 1.725.797 3.982 1.328 6.37 1.328 3.451 0 6.238-.797 8.362-2.257 2.123-1.461 3.716-3.719 4.645-6.64h11.149c-.664 2.921-1.726 5.445-3.186 7.702-1.46 2.258-3.318 4.117-5.441 5.71-2.124 1.594-4.513 2.657-7.167 3.453-2.654.797-5.442 1.196-8.361 1.196-4.248 0-7.964-.664-11.15-2.125a22.731 22.731 0 01-8.228-5.843c-2.256-2.524-3.982-5.445-5.043-8.898C1.057 36.935.526 33.217.526 29.1c0-3.719.664-7.437 1.858-10.757 1.195-3.453 2.92-6.375 5.177-9.03 2.256-2.524 4.91-4.649 8.096-6.11 3.185-1.46 6.768-2.257 10.75-2.257 4.247 0 7.963.93 11.281 2.656 3.318 1.726 6.105 4.116 8.362 6.905 2.256 2.922 3.849 6.242 4.778 9.96 1.061 3.719 1.194 7.57.796 11.554H12.34v.266zm27.473-7.835a18.165 18.165 0 00-1.195-5.313c-.663-1.726-1.592-3.187-2.654-4.515-1.194-1.328-2.522-2.258-4.114-3.054-1.593-.797-3.451-1.196-5.442-1.196-2.123 0-3.982.399-5.574 1.063-1.726.664-3.186 1.726-4.38 3.054-1.195 1.328-2.124 2.79-2.92 4.516-.664 1.726-1.062 3.585-1.194 5.577h27.473v-.133z" fill="#fff"/></svg>