<svg width="48" height="75" fill="none" xmlns="http://www.w3.org/2000/svg"><path d="M.545.22h11.813v27.358h.265c1.46-2.39 3.583-4.383 6.503-5.976 2.787-1.594 5.973-2.39 9.556-2.39 5.84 0 10.485 1.46 13.803 4.514 3.318 3.055 5.044 7.57 5.044 13.68v36.652H35.716V40.327c-.132-4.25-1.061-7.304-2.654-9.164-1.593-1.859-4.247-2.788-7.698-2.788-1.99 0-3.716.398-5.309 1.062-1.592.664-2.92 1.726-3.981 3.054-1.062 1.328-1.991 2.79-2.522 4.516-.664 1.726-.93 3.585-.93 5.445v31.474H.812V.22H.545z" fill="#fff"/></svg>