<svg width="269" height="56" fill="none" xmlns="http://www.w3.org/2000/svg"><path d="M4.892 9.562c1.327-.133 2.521-.531 3.45-.93.93-.531 1.858-1.328 2.522-2.39.664-1.063 1.194-2.524 1.46-4.516h3.053v42.099h-3.85V12.616H.38V9.96c1.725-.133 3.185-.265 4.513-.398zm25.217 34.263c0-2.125.398-3.984 1.061-5.578.664-1.594 1.593-3.054 2.655-4.383 1.062-1.328 2.389-2.39 3.849-3.452 1.46-1.063 2.787-2.125 4.38-3.055 1.46-.93 2.92-1.992 4.38-3.054 1.46-1.063 2.787-2.125 3.981-3.32 1.194-1.195 1.99-2.39 2.654-3.586.531-1.195.93-2.656.93-4.382 0-1.328-.266-2.524-.797-3.586-.53-1.062-1.194-1.992-1.99-2.656-.797-.797-1.859-1.328-3.053-1.727-1.195-.398-2.39-.53-3.584-.53-1.725 0-3.185.265-4.38.929-1.194.664-2.256 1.46-2.92 2.523-.796 1.063-1.327 2.258-1.592 3.719-.664 1.593-.796 3.054-.796 4.648h-3.85c0-2.125.266-4.117.797-5.977.53-1.859 1.327-3.452 2.522-4.78 1.061-1.328 2.521-2.39 4.247-3.055 1.725-.797 3.716-1.195 5.972-1.195 1.858 0 3.584.266 5.176.797 1.593.531 2.92 1.195 4.115 2.257 1.194.93 2.123 2.258 2.787 3.719.663 1.46.929 3.187.929 5.18 0 1.726-.266 3.32-.93 4.78a12.261 12.261 0 01-2.388 3.984c-.93 1.195-2.124 2.258-3.318 3.32a36.229 36.229 0 01-3.982 2.789c-1.061.664-2.123 1.46-3.583 2.258a36.24 36.24 0 00-3.982 2.788c-1.327 1.063-2.389 2.125-3.318 3.32-.929 1.196-1.593 2.524-1.858 3.852h23.359v3.453H30.109zm51.496-31.076h3.848v13.147h17.652V12.75h3.849v31.076h-3.849v-14.61H85.453v14.609h-3.849V12.749zm45.39 31.872c-2.389 0-4.512-.398-6.238-1.328-1.858-.796-3.318-1.992-4.645-3.452-1.194-1.461-2.123-3.188-2.787-5.18-.664-1.992-.929-4.117-.929-6.374 0-2.258.265-4.25.929-6.375.664-1.992 1.593-3.718 2.787-5.179 1.195-1.46 2.787-2.656 4.645-3.586 1.858-.93 3.849-1.328 6.238-1.328 2.389 0 4.513.399 6.238 1.328 1.858.93 3.318 2.125 4.645 3.586 1.195 1.46 2.124 3.187 2.788 5.18.663 1.991.929 4.116.929 6.374s-.266 4.382-.929 6.374c-.664 1.992-1.593 3.719-2.788 5.18-1.194 1.46-2.787 2.656-4.645 3.453-1.725.93-3.849 1.328-6.238 1.328zm0-3.187c1.858 0 3.318-.398 4.778-1.195 1.327-.797 2.522-1.726 3.451-3.054.929-1.196 1.593-2.656 1.991-4.25.398-1.594.663-3.187.663-4.78 0-1.595-.265-3.188-.663-4.782-.398-1.593-1.195-2.922-1.991-4.25-.929-1.195-1.991-2.257-3.451-3.054-1.327-.797-2.92-1.195-4.778-1.195-1.858 0-3.318.398-4.778 1.195-1.327.797-2.521 1.727-3.45 3.055-.93 1.195-1.593 2.656-1.991 4.25-.398 1.593-.664 3.186-.664 4.78 0 1.594.266 3.187.664 4.78.398 1.595 1.194 2.923 1.991 4.25.929 1.196 1.99 2.258 3.45 3.055 1.46.797 3.053 1.195 4.778 1.195zm28.137-10.225c-2.787-.266-4.911-1.063-6.636-2.79-1.593-1.593-2.389-3.718-2.389-6.507 0-1.328.266-2.656.664-3.718.398-1.195 1.061-2.125 1.858-2.922.796-.796 1.725-1.46 2.92-1.859 1.194-.398 2.521-.664 3.849-.664h14.997v31.076h-3.849v-12.35h-7.299l-10.618 12.35h-4.911l11.414-12.617zm11.68-2.922v-12.35h-10.353c-2.123 0-3.716.53-4.778 1.726-1.061 1.195-1.725 2.656-1.725 4.382 0 1.86.531 3.32 1.725 4.383 1.062 1.195 2.788 1.726 4.778 1.726h10.353v.133zM191.1 44.621c-2.787 0-5.176-.53-7.035-1.593-1.858-1.063-3.318-2.39-4.379-4.117a16.972 16.972 0 01-2.257-5.976c-.398-2.258-.663-4.515-.663-6.906 0-1.46 0-3.054.132-4.648.133-1.593.266-3.187.664-4.78a25.112 25.112 0 011.195-4.516c.53-1.46 1.061-2.789 1.858-3.851 1.46-2.125 3.052-3.719 5.043-4.648 1.991-.93 4.38-1.461 7.433-1.727l2.919-.133c1.593-.132 2.655-.265 3.186-.53A2.601 2.601 0 00200.39 0h4.247c-.265 1.86-1.194 3.054-2.389 3.718-1.327.664-3.318 1.063-5.972 1.196l-4.645.398c-3.584.266-6.238 1.46-8.096 3.851-1.859 2.258-3.053 5.844-3.849 10.625h.132c1.062-2.125 2.522-3.719 4.646-5.047 1.99-1.328 4.379-1.86 6.901-1.86 2.124 0 3.982.4 5.707 1.063 1.726.664 3.186 1.727 4.38 3.187a14.445 14.445 0 012.92 5.047c.663 1.992 1.062 4.117 1.062 6.64 0 2.39-.399 4.648-1.062 6.64-.664 1.992-1.593 3.719-2.92 5.047-1.327 1.46-2.787 2.523-4.513 3.187-1.725.531-3.716.93-5.839.93zm0-3.187c1.46 0 2.92-.265 4.247-.93 1.327-.663 2.389-1.46 3.318-2.655.929-1.196 1.725-2.524 2.256-4.117.531-1.594.796-3.32.796-5.18 0-1.859-.265-3.585-.796-5.179-.531-1.594-1.194-2.922-2.256-3.984-.929-1.062-1.991-1.992-3.318-2.523-1.327-.664-2.655-.93-4.115-.93-1.592 0-3.052.266-4.379.93-1.328.664-2.389 1.46-3.451 2.523a11.567 11.567 0 00-2.256 3.984c-.531 1.594-.797 3.32-.797 5.18 0 1.859.266 3.718.797 5.179.53 1.593 1.194 2.921 2.256 4.117.929 1.195 2.123 1.992 3.318 2.656 1.46.664 2.787.93 4.38.93zm20.041-28.685h3.45v5.843h.133c.929-2.124 2.256-3.851 4.247-5.046 1.991-1.195 4.247-1.727 6.769-1.727 2.389 0 4.38.399 6.105 1.328a14.43 14.43 0 014.38 3.586c1.194 1.46 1.991 3.187 2.522 5.18a24.38 24.38 0 01.796 6.241c0 2.258-.265 4.382-.796 6.375-.531 1.992-1.46 3.718-2.522 5.179a14.428 14.428 0 01-4.38 3.586 14.738 14.738 0 01-6.105 1.328c-1.194 0-2.256-.133-3.451-.399-1.062-.265-2.123-.664-3.052-1.328a9.766 9.766 0 01-2.522-2.125c-.796-.797-1.327-1.859-1.725-2.921h-.133v17.264h-3.849V12.749h.133zm14.599 28.685c1.858 0 3.318-.398 4.645-1.195 1.327-.797 2.389-1.726 3.186-3.054a13.784 13.784 0 001.858-4.25c.398-1.594.531-3.187.531-4.78 0-1.595-.133-3.188-.531-4.782-.399-1.593-.929-3.054-1.858-4.25a10.043 10.043 0 00-3.186-3.054c-1.327-.797-2.787-1.195-4.645-1.195-2.124 0-3.849.398-5.309 1.062a8.831 8.831 0 00-3.318 2.922c-.796 1.195-1.46 2.656-1.725 4.25-.398 1.593-.531 3.32-.531 5.046 0 1.594.133 3.187.531 4.78.398 1.595 1.062 2.923 1.858 4.25.796 1.196 1.991 2.258 3.318 3.055 1.46.797 3.185 1.195 5.176 1.195zm27.739-10.225c-2.787-.266-4.911-1.063-6.636-2.79-1.593-1.593-2.389-3.718-2.389-6.507 0-1.328.265-2.656.663-3.718.398-1.195 1.062-2.125 1.858-2.922.797-.796 1.726-1.46 2.92-1.859 1.195-.398 2.522-.664 3.849-.664h14.998v31.076h-3.849v-12.35h-7.3l-10.618 12.35h-4.91l11.414-12.617zm11.546-2.922v-12.35h-10.352c-2.123 0-3.716.53-4.778 1.726-1.062 1.195-1.725 2.656-1.725 4.382 0 1.86.531 3.32 1.725 4.383 1.062 1.195 2.787 1.726 4.778 1.726h10.352v.133z" fill="#fff"/></svg>