<svg width="35" height="244" fill="none" xmlns="http://www.w3.org/2000/svg"><path d="M-1 243.426v-3.585h13.272L-1 226.029v-4.648l12.21 13.015 15.13-13.413v4.648l-12.873 11.686 2.654 2.789h10.352v3.586H-1v-.266zm27.739-33.466c0 1.594-.266 2.922-.797 4.117-.53 1.195-1.194 2.125-2.123 3.054-.93.797-1.99 1.461-3.318 1.86a13.367 13.367 0 01-4.114.664c-1.46 0-2.788-.266-4.115-.664-1.327-.399-2.389-1.063-3.318-1.86a8.725 8.725 0 01-2.256-3.054c-.531-1.195-.797-2.523-.797-4.117 0-1.593.266-2.921.797-4.117a8.734 8.734 0 012.256-3.054c.93-.797 1.99-1.461 3.318-1.859 1.327-.399 2.655-.664 4.115-.664 1.46 0 2.787.265 4.114.664 1.194.398 2.389 1.062 3.318 1.859.929.797 1.593 1.859 2.123 3.054.531 1.196.797 2.524.797 4.117zm-2.787 0c0-.797-.133-1.593-.531-2.39-.266-.797-.797-1.461-1.46-1.992-.664-.531-1.46-1.063-2.39-1.328-.928-.266-1.99-.532-3.184-.532-1.195 0-2.257.133-3.186.532-.929.265-1.725.797-2.389 1.328-.663.531-1.062 1.195-1.46 1.992-.265.797-.53 1.593-.53 2.39 0 .797.132 1.594.53 2.391.266.796.797 1.46 1.46 1.992.664.531 1.46 1.062 2.39 1.328.928.265 1.99.531 3.185.531 1.194 0 2.256-.133 3.185-.531.929-.266 1.725-.797 2.389-1.328.663-.532 1.062-1.196 1.46-1.992.265-.797.53-1.594.53-2.391zM6.565 196.547v-3.187h7.83v-10.093h-7.83v-3.187h19.776v3.187h-9.158v10.093h9.158v3.187H6.565zm18.315-32.802c.266.266.399.531.664.797.266.265.398.664.664 1.062l.398 1.195c.133.399.133.797.133 1.196 0 1.461-.266 2.789-.93 3.718a5.212 5.212 0 01-2.388 2.391c-.93.664-2.124 1.062-3.451 1.328a20.29 20.29 0 01-3.982.398c-3.185 0-5.574-.664-7.432-2.125-1.725-1.328-2.654-3.32-2.654-5.578 0-.398 0-.796.132-1.328.133-.398.266-.929.531-1.328.266-.398.398-.796.664-1.062.265-.398.53-.664.796-.797H-1v-3.187h9.158l-.797-.797a2.889 2.889 0 01-.663-1.062c-.266-.399-.398-.797-.531-1.328-.133-.399-.133-.93-.133-1.328 0-2.391.93-4.25 2.655-5.578 1.725-1.328 4.247-2.125 7.432-2.125 1.327 0 2.655.133 3.982.399 1.327.265 2.389.796 3.45 1.328a10.2 10.2 0 012.39 2.39c.53 1.062.928 2.258.928 3.718 0 .797-.132 1.461-.53 2.391-.399.797-.797 1.461-1.328 1.859h9.025v3.187h-9.157v.266zm-.796 3.851c0-.929-.265-1.859-.796-2.523-.53-.664-1.062-1.195-1.858-1.328h-9.822c-.53.133-.928.398-1.327.664a2.067 2.067 0 00-.796 1.062c-.265.399-.398.797-.398 1.196-.133.398-.133.796-.133 1.195 0 .797.133 1.594.531 2.125.398.664.929 1.062 1.593 1.461.663.398 1.46.664 2.389.796.929.133 1.858.266 2.92.266.929 0 1.858-.133 2.787-.266a7.993 7.993 0 002.521-.796c.797-.399 1.328-.93 1.858-1.461.266-.531.531-1.328.531-2.391zm0-10.89c0-.929-.265-1.859-.663-2.39-.531-.664-1.062-1.195-1.858-1.461a8.019 8.019 0 00-2.522-.797c-.93-.132-1.858-.265-2.787-.265-1.062 0-2.124.133-2.92.265-.93.133-1.726.532-2.39.797a5.671 5.671 0 00-1.592 1.461c-.398.664-.53 1.328-.53 2.125 0 .398 0 .797.132 1.195l.398 1.195c.266.399.531.664.797 1.063.265.398.796.531 1.327.664h9.954c.663-.133 1.327-.531 1.858-1.328.53-.664.796-1.461.796-2.524zm2.655-20.717c0 1.594-.266 2.922-.797 4.117-.53 1.195-1.194 2.125-2.123 2.922-.93.797-1.991 1.328-3.318 1.726-1.327.399-2.655.532-4.115.532-1.46 0-2.787-.266-4.114-.664a7.694 7.694 0 01-3.318-1.992c-.929-.797-1.593-1.86-2.123-2.922a8.918 8.918 0 01-.797-3.719c0-1.726.398-3.187 1.062-4.382a7.043 7.043 0 012.787-2.789 11.452 11.452 0 013.716-1.461c1.328-.265 2.655-.398 3.85-.265v15.006c.928 0 1.725-.133 2.52-.265.797-.266 1.46-.664 2.124-1.063.664-.531 1.062-1.195 1.46-1.992.399-.797.531-1.726.531-2.789 0-1.328-.265-2.523-.929-3.452-.663-.93-1.592-1.461-2.92-1.727v-3.187c2.257.398 3.982 1.328 5.044 2.922.929 1.328 1.46 3.187 1.46 5.444zm-12.21-5.312c-.797 0-1.46.266-2.124.532-.664.265-1.327.664-1.726 1.195-.53.531-.929 1.062-1.194 1.726-.266.664-.398 1.461-.398 2.258 0 .797.132 1.593.398 2.257.265.664.664 1.196 1.194 1.727.531.531 1.062.929 1.726 1.195.663.266 1.46.398 2.123.531v-11.421zm-7.964-6.905v-3.188H9.22v-.132c-1.061-.532-1.858-1.328-2.388-2.524-.531-1.195-.797-2.39-.797-3.851 0-1.594.266-2.922.797-3.984a6.78 6.78 0 012.256-2.789c.929-.797 2.123-1.328 3.318-1.726 1.194-.399 2.522-.531 3.981-.531 1.46 0 2.788.132 3.982.531 1.195.398 2.256.929 3.185 1.726.93.797 1.726 1.727 2.257 2.789.53 1.195.796 2.39.796 3.984 0 .531 0 1.062-.133 1.594-.132.531-.265 1.195-.53 1.726-.266.531-.532 1.195-.93 1.727-.398.531-.929.929-1.46 1.328v.132h10.22v3.188H6.565zm17.387-9.429a6.176 6.176 0 00-.664-2.789c-.398-.797-1.062-1.328-1.725-1.859-.664-.399-1.593-.797-2.39-.93-.928-.266-1.857-.266-2.787-.266-.929 0-1.858.133-2.654.399a9.949 9.949 0 00-2.389 1.062c-.664.531-1.194 1.195-1.593 1.859a6.179 6.179 0 00-.663 2.789c0 1.063.265 1.992.663 2.789.399.797 1.062 1.328 1.726 1.859.663.532 1.46.797 2.389 1.063.929.265 1.858.265 2.654.265.93 0 1.858-.132 2.787-.398.93-.266 1.726-.531 2.39-1.062.663-.532 1.194-1.196 1.725-1.992a7.42 7.42 0 00.53-2.789zm2.787-21.514c0 1.593-.266 2.921-.797 4.117-.53 1.195-1.194 2.124-2.123 2.921-.93.797-1.991 1.328-3.318 1.727-1.327.398-2.655.531-4.115.531-1.46 0-2.787-.266-4.114-.664a7.693 7.693 0 01-3.318-1.992c-.929-.797-1.593-1.86-2.123-2.922-.531-.93-.797-2.257-.797-3.585 0-1.727.398-3.188 1.062-4.383a7.04 7.04 0 012.787-2.789 11.443 11.443 0 013.716-1.46c1.328-.266 2.655-.399 3.85-.266v14.874c.928 0 1.725-.133 2.52-.266.797-.266 1.46-.664 2.124-1.062.664-.532 1.062-1.196 1.46-1.992.399-.797.531-1.727.531-2.79 0-1.327-.265-2.523-.929-3.452-.663-.93-1.592-1.461-2.92-1.727v-3.187c2.257.399 3.982 1.328 5.044 2.922.929 1.328 1.46 3.187 1.46 5.445zm-12.21-5.445c-.797 0-1.46.265-2.124.531-.664.266-1.327.664-1.726 1.195-.53.531-.929 1.063-1.194 1.727-.266.664-.398 1.46-.398 2.257 0 .797.132 1.594.398 2.258.265.664.664 1.195 1.194 1.726.531.532 1.062.93 1.726 1.196.663.265 1.46.398 2.123.53v-11.42zM6.565 80.61v-3.186h7.83V67.33h-7.83v-3.188h19.776v3.188h-9.158v10.093h9.158v3.187H6.565zM26.34 43.825V59.23H6.566v-3.188h16.856v-9.296H6.565V43.56h16.856v-2.656h8.892v2.922h-5.972zM6.565 37.583v-3.187h16.192L6.565 25.1v-4.117h19.776v3.187H10.149l16.192 9.296v4.117H6.565zM18.643 11.82c-.266 1.46-.797 2.523-1.858 3.452-1.062.93-2.39 1.328-4.115 1.328-1.858 0-3.318-.53-4.38-1.726-1.061-1.063-1.592-2.656-1.592-4.515V.266h19.775v3.187h-7.565v4.515l7.565 6.109v4.382l-7.83-6.64zm-2.787-8.234H9.352v5.71c0 1.328.266 2.39.93 2.922.53.664 1.327.93 2.388.93 1.062 0 1.858-.266 2.39-.93.53-.664.796-1.594.796-2.922v-5.71z" fill="#FFB32C"/></svg>