<svg width="33" height="55" fill="none" xmlns="http://www.w3.org/2000/svg"><path d="M.852 1.54h11.016v10.358h.265c.399-1.461 1.062-2.79 1.991-4.25.93-1.328 2.257-2.656 3.584-3.718 1.46-1.196 2.92-1.992 4.645-2.79C24.078.478 25.803.079 27.662.079c1.327 0 2.256 0 2.787.133.53.133 1.062.133 1.593.266v11.288c-.797-.133-1.726-.266-2.522-.398-.796-.133-1.725-.133-2.522-.133-1.99 0-3.849.398-5.574 1.195-1.725.797-3.318 1.992-4.645 3.453a15.713 15.713 0 00-3.053 5.71c-.796 2.258-1.194 4.914-1.194 7.836v25.365H.852V1.539z" fill="#fff"/></svg>