<svg width="48" height="57" fill="none" xmlns="http://www.w3.org/2000/svg"><path d="M11.583 37.794c.398 3.453 1.593 5.844 3.982 7.172 2.256 1.328 5.043 2.124 8.096 2.124 1.061 0 2.389-.133 3.716-.265 1.46-.133 2.787-.532 3.982-.93 1.194-.531 2.256-1.195 3.052-2.125.796-.93 1.195-2.125 1.062-3.718-.133-1.461-.664-2.789-1.593-3.719a11.572 11.572 0 00-3.981-2.257 41.97 41.97 0 00-5.575-1.461c-2.123-.398-4.114-.797-6.238-1.328-2.256-.531-4.38-1.063-6.37-1.726-1.991-.665-3.85-1.594-5.442-2.79-1.593-1.195-2.92-2.655-3.849-4.515-.929-1.859-1.46-4.116-1.46-6.773 0-2.921.664-5.312 2.124-7.304S6.274 4.594 8.398 3.4C10.52 2.202 12.91 1.405 15.565.874 18.219.344 20.74.211 23.13.211c2.787 0 5.441.266 7.83.93 2.522.531 4.778 1.593 6.77 2.789a18.25 18.25 0 015.043 5.046c1.327 2.125 2.123 4.648 2.521 7.57h-12.21c-.531-2.789-1.858-4.648-3.849-5.71-1.99-.93-4.38-1.461-6.901-1.461-.797 0-1.859.132-2.92.265-1.195.133-2.257.399-3.186.797-1.062.398-1.858.93-2.521 1.594-.664.664-1.062 1.726-1.062 2.788 0 1.461.53 2.656 1.46 3.453 1.061.93 2.256 1.594 3.981 2.258a41.961 41.961 0 005.575 1.46c2.123.4 4.247.798 6.37 1.329 2.124.531 4.247 1.062 6.238 1.726 2.124.664 3.85 1.594 5.575 2.789a15.718 15.718 0 013.981 4.383c.93 1.726 1.46 3.984 1.46 6.64 0 3.187-.663 5.843-2.123 8.1-1.46 2.258-3.319 3.985-5.575 5.313-2.256 1.328-4.91 2.39-7.698 3.054-2.787.664-5.574.93-8.361.93-3.318 0-6.503-.399-9.29-1.195-2.92-.797-5.31-1.86-7.433-3.453-2.123-1.594-3.716-3.453-4.91-5.844C.7 43.505.035 40.716.035 37.53h11.547v.265z" fill="#fff"/></svg>