<svg width="32" height="70" fill="none" xmlns="http://www.w3.org/2000/svg"><path d="M.32 16.04h8.892V.104h11.812V16.04h10.618v8.765H21.024v28.42c0 1.195 0 2.257.133 3.187.132.93.398 1.593.663 2.257.398.664.93 1.063 1.726 1.328.796.266 1.725.399 3.052.399h2.522c.796 0 1.593-.133 2.522-.399v9.03c-1.328.134-2.522.266-3.85.4-1.194.132-2.521.265-3.848.265-3.053 0-5.575-.266-7.433-.93-1.858-.664-3.318-1.46-4.38-2.523-1.061-1.195-1.725-2.523-2.123-4.25a26.197 26.197 0 01-.664-5.843V24.672H.452V16.04H.32z" fill="#fff"/></svg>