<svg width="350" height="123" fill="none" xmlns="http://www.w3.org/2000/svg"><path d="M.225.362h43.887v8.18H26.909v45.87h-9.481V8.542H.225V.362zm48.969 0h8.7v20.062h.195c1.075-1.753 2.639-3.214 4.79-4.383 2.052-1.169 4.398-1.753 7.037-1.753 4.3 0 7.721 1.071 10.165 3.311 2.443 2.24 3.714 5.551 3.714 10.031v26.88h-8.7V29.772c-.097-3.117-.781-5.357-1.954-6.72-1.173-1.363-3.128-2.045-5.669-2.045a9.991 9.991 0 00-3.91.779c-1.173.487-2.15 1.266-2.932 2.24-.782.974-1.466 2.045-1.857 3.311-.489 1.266-.684 2.63-.684 3.993v23.081h-8.7V.362h-.195zm43.886 0h8.7v8.18h-8.7V.362zm0 14.9h8.7v39.15h-8.7v-39.15zm24.632 26.587c.293 2.532 1.173 4.285 2.932 5.259 1.662.974 3.714 1.558 5.962 1.558.782 0 1.76-.097 2.737-.195 1.075-.097 2.053-.39 2.932-.681.88-.39 1.662-.877 2.248-1.559.587-.681.88-1.558.782-2.727-.097-1.07-.488-2.045-1.173-2.726a8.528 8.528 0 00-2.932-1.656 31.004 31.004 0 00-4.105-1.071c-1.564-.292-3.03-.584-4.594-.974-1.662-.39-3.225-.78-4.692-1.266-1.466-.487-2.834-1.169-4.007-2.045-1.173-.877-2.15-1.948-2.835-3.311-.684-1.364-1.075-3.02-1.075-4.967 0-2.143.489-3.896 1.564-5.357 1.075-1.46 2.346-2.63 3.91-3.506 1.564-.876 3.323-1.46 5.278-1.85 1.955-.39 3.812-.487 5.571-.487 2.053 0 4.008.195 5.767.682 1.857.39 3.519 1.168 4.985 2.045a13.407 13.407 0 013.714 3.7c.978 1.559 1.564 3.41 1.857 5.552h-8.992c-.391-2.045-1.368-3.409-2.835-4.188-1.466-.682-3.225-1.071-5.082-1.071-.587 0-1.369.097-2.151.195-.879.097-1.661.292-2.345.584-.782.292-1.369.682-1.857 1.169-.489.487-.782 1.266-.782 2.045 0 1.071.391 1.948 1.075 2.532.782.682 1.661 1.168 2.932 1.655 1.173.39 2.541.78 4.105 1.072 1.564.292 3.128.584 4.692.974s3.128.779 4.594 1.266c1.564.487 2.834 1.168 4.105 2.045a11.545 11.545 0 012.932 3.214c.684 1.266 1.075 2.921 1.075 4.87 0 2.336-.488 4.284-1.563 5.94-1.076 1.655-2.444 2.921-4.106 3.895-1.661.974-3.616 1.753-5.669 2.24-2.052.487-4.105.682-6.158.682-2.443 0-4.789-.292-6.841-.877-2.151-.584-3.91-1.363-5.474-2.532-1.564-1.168-2.737-2.532-3.617-4.285-.879-1.655-1.368-3.7-1.368-6.038h8.504v.195zm69.299-8.668L166.681.361h11.045l14.368 24.25L206.266.361h10.654l-20.232 32.82v21.231h-9.481v-21.23h-.196zm33.623 3.896c0 1.558.196 3.019.685 4.382.391 1.461 1.075 2.63 1.955 3.701.879 1.071 1.954 1.948 3.225 2.532 1.271.584 2.932.974 4.692.974 2.541 0 4.594-.584 6.157-1.655 1.564-1.072 2.737-2.727 3.421-4.87h8.211c-.489 2.143-1.271 3.993-2.346 5.649-1.075 1.655-2.444 3.019-4.007 4.187-1.564 1.169-3.324 1.948-5.279 2.532-1.954.585-4.007.877-6.157.877-3.128 0-5.865-.487-8.211-1.558a16.742 16.742 0 01-6.06-4.285c-1.661-1.85-2.932-3.993-3.714-6.525-.88-2.532-1.271-5.26-1.271-8.278 0-2.727.489-5.454 1.369-7.889.879-2.532 2.15-4.674 3.812-6.622 1.661-1.85 3.616-3.409 5.962-4.48 2.346-1.071 4.985-1.656 7.917-1.656 3.128 0 5.865.682 8.308 1.948 2.444 1.266 4.496 3.02 6.158 5.064 1.662 2.143 2.835 4.578 3.519 7.304.782 2.727.88 5.552.586 8.473h-28.932v.195zm20.233-5.746a13.273 13.273 0 00-.88-3.896c-.488-1.266-1.172-2.337-1.954-3.31-.88-.975-1.857-1.656-3.03-2.24-1.173-.585-2.542-.877-4.008-.877-1.564 0-2.932.292-4.105.779-1.271.487-2.346 1.266-3.226 2.24-.879.974-1.563 2.045-2.15 3.311-.489 1.266-.782 2.63-.88 4.09h20.233v-.097zm48.187 14.316c0 1.071.098 1.85.391 2.24.293.487.782.682 1.662.682h.879c.391 0 .782-.098 1.173-.195v5.94c-.293.098-.684.195-1.173.39l-1.466.292c-.488.098-.977.195-1.564.195-.488.097-.977.098-1.27.098-1.76 0-3.226-.39-4.399-1.072-1.173-.681-1.955-1.947-2.248-3.7-1.759 1.655-3.812 2.921-6.353 3.603-2.541.779-4.887 1.169-7.233 1.169-1.759 0-3.421-.195-5.083-.682-1.661-.487-3.03-1.169-4.3-2.143-1.271-.974-2.248-2.142-2.933-3.603-.781-1.46-1.075-3.116-1.075-5.064 0-2.435.489-4.383 1.369-5.94a9.598 9.598 0 013.518-3.604c1.467-.877 3.03-1.461 4.888-1.85a49.329 49.329 0 015.473-.877c1.564-.292 3.03-.487 4.496-.682 1.466-.097 2.639-.292 3.715-.682 1.075-.292 1.954-.779 2.541-1.363.586-.584.977-1.558.977-2.824 0-1.072-.293-2.046-.782-2.727a5.375 5.375 0 00-1.955-1.656c-.781-.39-1.661-.584-2.639-.779-.977-.097-1.857-.195-2.736-.195-2.444 0-4.399.487-5.963 1.559-1.564.973-2.443 2.532-2.639 4.674h-8.699c.196-2.532.782-4.577 1.857-6.233 1.075-1.655 2.444-3.019 4.105-3.993 1.662-.973 3.519-1.753 5.572-2.142a34.253 34.253 0 016.353-.584c1.955 0 3.812.194 5.669.584 1.857.39 3.519 1.071 5.083 1.948 1.466.876 2.737 2.045 3.616 3.506.88 1.46 1.369 3.213 1.369 5.259v20.451h-.196zm-8.699-10.907c-1.271.876-2.932 1.363-4.887 1.558-1.955.195-3.812.487-5.767.779-.88.195-1.759.39-2.639.682-.88.292-1.662.681-2.248 1.168-.684.487-1.173 1.072-1.564 1.85-.391.78-.586 1.754-.586 2.825 0 .974.293 1.753.879 2.435.587.681 1.271 1.168 2.053 1.558.782.39 1.662.682 2.541.779.978.195 1.76.195 2.542.195.977 0 1.954-.098 3.127-.39 1.075-.292 2.151-.681 3.128-1.266.977-.584 1.857-1.363 2.444-2.337.684-.974.977-2.045.977-3.409V34.74zm17.985-19.478h8.112v7.596h.196c.293-1.071.782-2.045 1.466-3.116.684-.974 1.662-1.948 2.639-2.727 1.075-.877 2.15-1.46 3.421-2.045 1.271-.487 2.541-.78 3.91-.78.977 0 1.661 0 2.052.098.391.097.782.098 1.173.195v8.278c-.586-.098-1.27-.195-1.857-.292-.586-.098-1.27-.098-1.857-.098-1.466 0-2.834.293-4.105.877-1.271.584-2.444 1.46-3.421 2.532a11.502 11.502 0 00-2.248 4.188c-.587 1.655-.88 3.603-.88 5.746v18.6h-8.601V15.263zm-282.28 52.2h10.067l24.729 39.832h.195V67.462h8.992v54.051h-9.97L25.346 81.778h-.195v39.735h-8.993v-54.05h-.098zm60.795 36.715c0 1.559.196 3.02.684 4.383.391 1.461 1.076 2.629 1.955 3.701.88 1.071 1.955 1.947 3.226 2.532 1.27.584 2.932.974 4.692.974 2.54 0 4.593-.585 6.157-1.656s2.737-2.727 3.421-4.869h8.211c-.489 2.142-1.271 3.993-2.346 5.648-1.075 1.656-2.444 3.019-4.008 4.188-1.564 1.169-3.323 1.948-5.278 2.532a21.396 21.396 0 01-6.157.876c-3.128 0-5.865-.486-8.21-1.558a16.734 16.734 0 01-6.06-4.285 17.255 17.255 0 01-3.715-6.525c-.88-2.532-1.27-5.259-1.27-8.278 0-2.727.488-5.454 1.368-7.888.88-2.532 2.15-4.675 3.811-6.623 1.662-1.85 3.617-3.408 5.963-4.48 2.346-1.07 4.985-1.655 7.917-1.655 3.128 0 5.865.682 8.308 1.948 2.444 1.266 4.496 3.019 6.158 5.064 1.661 2.142 2.834 4.577 3.519 7.304.782 2.727.879 5.551.586 8.473H76.855v.194zm20.233-5.648a13.276 13.276 0 00-.88-3.896c-.488-1.266-1.173-2.337-1.955-3.31-.88-.975-1.857-1.656-3.03-2.24-1.172-.585-2.54-.877-4.007-.877-1.564 0-2.932.292-4.105.779-1.27.487-2.346 1.266-3.226 2.24-.88.974-1.564 2.045-2.15 3.311a13.859 13.859 0 00-.88 4.09h20.233v-.097zm25.804 2.435L109.306 82.46h10.458l8.211 12.076 8.601-12.076h10.067l-13.39 18.114 15.052 21.036h-10.361l-9.969-14.414-9.677 14.414h-10.165l14.759-20.646zm26.293-18.602h6.549V70.676h8.699v11.686h7.819v6.428h-7.819v20.841c0 .877 0 1.656.097 2.337.098.682.294 1.169.489 1.656.293.487.684.779 1.271.974.586.195 1.27.292 2.248.292h1.857c.586 0 1.173-.097 1.857-.292v6.622c-.977.098-1.857.195-2.834.292-.88.098-1.858.195-2.835.195-2.248 0-4.105-.195-5.474-.681-1.368-.487-2.443-1.072-3.225-1.851-.782-.876-1.271-1.85-1.564-3.116a19.146 19.146 0 01-.489-4.285V88.693h-6.548v-6.33h-.098zm65.683 18.017l-20.331-32.82h11.045l14.368 24.25 14.173-24.25h10.654l-20.233 32.82v21.231h-9.481v-21.231h-.195zm33.623 3.798c0 1.559.196 3.02.684 4.383.391 1.461 1.075 2.629 1.955 3.701.88 1.071 1.955 1.947 3.226 2.532 1.27.584 2.932.974 4.691.974 2.542 0 4.594-.585 6.158-1.656s2.737-2.727 3.421-4.869h8.21c-.488 2.142-1.27 3.993-2.345 5.648-1.076 1.656-2.444 3.019-4.008 4.188-1.564 1.169-3.323 1.948-5.278 2.532-1.955.584-4.007.876-6.158.876-3.128 0-5.864-.486-8.21-1.558a16.727 16.727 0 01-6.06-4.285 17.25 17.25 0 01-3.714-6.525c-.88-2.532-1.271-5.259-1.271-8.278 0-2.727.489-5.454 1.368-7.888.88-2.532 2.151-4.675 3.812-6.623 1.662-1.85 3.617-3.408 5.963-4.48 2.345-1.07 4.985-1.655 7.917-1.655 3.128 0 5.864.682 8.308 1.948 2.443 1.266 4.496 3.019 6.158 5.064 1.661 2.142 2.834 4.577 3.518 7.304.782 2.727.88 5.551.587 8.473h-28.932v.194zm20.233-5.648a13.273 13.273 0 00-.88-3.896c-.489-1.266-1.173-2.337-1.955-3.31-.879-.975-1.857-1.656-3.03-2.24-1.173-.585-2.541-.877-4.007-.877-1.564 0-2.932.292-4.105.779-1.271.487-2.346 1.266-3.226 2.24-.88.974-1.564 2.045-2.15 3.311-.489 1.266-.782 2.63-.88 4.09h20.233v-.097zm48.187 14.316c0 1.071.098 1.85.391 2.24.293.487.782.682 1.661.682h.88c.391 0 .782-.098 1.173-.195v5.941c-.293.097-.684.194-1.173.389l-1.466.292c-.489.098-.977.195-1.564.195-.489.097-.977.097-1.27.097-1.76 0-3.226-.389-4.399-1.071-1.173-.682-1.955-1.948-2.248-3.701-1.759 1.656-3.812 2.922-6.353 3.604-2.542.779-4.887 1.168-7.233 1.168-1.76 0-3.421-.194-5.083-.681-1.661-.487-3.03-1.169-4.3-2.143-1.271-.974-2.249-2.142-2.933-3.603-.782-1.461-1.075-3.117-1.075-5.064 0-2.435.489-4.383 1.369-5.941a9.596 9.596 0 013.518-3.603c1.466-.877 3.03-1.461 4.887-1.85 1.76-.39 3.617-.683 5.474-.877 1.564-.292 3.03-.487 4.496-.682 1.466-.097 2.639-.292 3.714-.682 1.075-.292 1.955-.779 2.542-1.363.586-.584.977-1.558.977-2.824 0-1.072-.293-2.046-.782-2.727a5.381 5.381 0 00-1.955-1.656c-.782-.39-1.661-.584-2.639-.779-.977-.097-1.857-.195-2.737-.195-2.443 0-4.398.487-5.962 1.558-1.564.974-2.443 2.533-2.639 4.675h-8.699c.195-2.532.782-4.577 1.857-6.233 1.075-1.655 2.444-3.019 4.105-3.993 1.662-.973 3.519-1.753 5.572-2.142a34.261 34.261 0 016.353-.584c1.955 0 3.812.194 5.669.584 1.857.39 3.519 1.071 5.083 1.948 1.466.876 2.736 2.045 3.616 3.506.88 1.46 1.368 3.213 1.368 5.258v20.452h-.195zm-8.699-10.907c-1.271.876-2.932 1.363-4.887 1.558-1.955.195-3.812.487-5.767.779-.88.195-1.759.389-2.639.682-.88.292-1.662.681-2.248 1.168-.684.487-1.173 1.072-1.564 1.851-.391.779-.587 1.753-.587 2.824 0 .974.294 1.753.88 2.435.587.681 1.271 1.168 2.053 1.558.782.389 1.661.682 2.541.779.977.195 1.759.195 2.541.195.978 0 1.955-.098 3.128-.39 1.075-.292 2.15-.682 3.128-1.266.977-.584 1.857-1.363 2.443-2.337.685-.974.978-2.045.978-3.409v-6.427zm17.984-19.576h8.113v7.597h.196c.293-1.072.781-2.045 1.466-3.117.684-.974 1.661-1.947 2.639-2.727 1.075-.876 2.15-1.46 3.421-2.045 1.27-.487 2.541-.779 3.909-.779.978 0 1.662 0 2.053.098.391.097.782.097 1.173.194v8.278c-.587-.097-1.271-.194-1.857-.292-.587-.097-1.271-.097-1.857-.097-1.466 0-2.835.292-4.105.876-1.271.585-2.444 1.461-3.421 2.532a11.504 11.504 0 00-2.249 4.188c-.586 1.656-.879 3.604-.879 5.746v18.601h-8.699V82.362h.097z" fill="#fff"/></svg>